<svg height='100px' width='100px'  fill="#0a721b" xmlns="http://www.w3.org/2000/svg" xmlns:xlink="http://www.w3.org/1999/xlink" version="1.1" x="0px" y="0px" viewBox="0 0 42 42" style="enable-background:new 0 0 42 42;" xml:space="preserve"><path d="M36,22c0.6,0,1-0.4,1-1V11c0-2.2-1.8-4-4-4H9c-2.2,0-4,1.8-4,4v14c0,2.2,1.8,4,4,4h12c0,4.4,3.6,8,8,8  s8-3.6,8-8s-3.6-8-8-8c-3.7,0-6.8,2.6-7.7,6H9c-1.1,0-2-0.9-2-2v-9h28v5C35,21.6,35.4,22,36,22z M29,23c3.3,0,6,2.7,6,6s-2.7,6-6,6  s-6-2.7-6-6S25.7,23,29,23z M7,12v-1c0-1.1,0.9-2,2-2h24c1.1,0,2,0.9,2,2v1H7z"></path><path d="M13.1,19.5c-0.4-0.3-1-0.4-1.5-0.4c-1.7,0-3.1,1.4-3.1,3.1c0,1.7,1.4,3.1,3.1,3.1c0.6,0,1.1-0.2,1.5-0.4  c-0.7-0.7-1.1-1.6-1.1-2.7S12.4,20.2,13.1,19.5z"></path><circle cx="15.8" cy="22.1" r="3.1"></circle><path d="M29,30.5c0.6,0,1-0.4,1-1v-4c0-0.6-0.4-1-1-1s-1,0.4-1,1v4C28,30.1,28.4,30.5,29,30.5z"></path><path d="M28.3,31.3c-0.4,0.4-0.4,1,0,1.4c0.2,0.2,0.5,0.3,0.7,0.3s0.5-0.1,0.7-0.3c0.4-0.4,0.4-1,0-1.4  C29.3,30.9,28.7,30.9,28.3,31.3z"></path></svg>